# xmcd
#
# Track frame offsets:
#	150
#	12420
#	25316
#	36320
#	55098
#	69716
#	84177
#	97230
#	111848
#	133040
#	152354
#	164155
#	179869
#	196991
#	213575
#	225376
#	236551
#	249379
#	266188
#	279084
#	291667
#	306442
#
# Disc length: 4314 seconds
#
# Revision: 0
# Processed by: cddbd v1.5.2PL0 Copyright (c) Steve Scherf et al.
# Submitted via: audiograbber 1.83.01
#
DISCID=4b10d816
DTITLE=Barry Wild - It´s Midnight
DYEAR=1900
DGENRE=
TTITLE0=Little Old Wine Drinker Me
TTITLE1=Aint No Big Thing
TTITLE2=No More
TTITLE3=Looking For Love
TTITLE4=Love Coming Down
TTITLE5=Let Your Love Flow
TTITLE6=If You Love Me Let Me Know
TTITLE7=Gotta Get To You
TTITLE8=Hey
TTITLE9=Margarita Ville
TTITLE10=On The Road Again
TTITLE11=It's Midnight
TTITLE12=How Long
TTITLE13=No Shoes No Shirt No Problem
TTITLE14=Paper Roses
TTITLE15=Send Me The Pillow
TTITLE16=Fairy Tale
TTITLE17=Wonderful Tonight
TTITLE18=It's Four In The Morning
TTITLE19=Memorys To Burn
TTITLE20=I Can't Help Falling In Love with You
TTITLE21=Feelings
EXTD=
EXTT0=
EXTT1=
EXTT2=
EXTT3=
EXTT4=
EXTT5=
EXTT6=
EXTT7=
EXTT8=
EXTT9=
EXTT10=
EXTT11=
EXTT12=
EXTT13=
EXTT14=
EXTT15=
EXTT16=
EXTT17=
EXTT18=
EXTT19=
EXTT20=
EXTT21=
PLAYORDER=
